HIERARCHY
ROOT Root
{
	OFFSET 0.00000 0.00000 0.00000
	CHANNELS 6 Xposition Yposition Zposition Zrotation Xrotation Yrotation
	JOINT Hip
	{
		OFFSET 0 0 0	
		CHANNELS 3 Zrotation Xrotation Yrotation
		JOINT Tummy
		{
			OFFSET 0 0.04 0	
			CHANNELS 3 Zrotation Xrotation Yrotation
			JOINT ChestBottom
			{
				OFFSET 0 0.194 0	
				CHANNELS 3 Zrotation Xrotation Yrotation
				JOINT ChestTop
				{
					OFFSET 0 0.166 0	
					CHANNELS 3 Zrotation Xrotation Yrotation
					JOINT LeftCollar
					{
						OFFSET 0 0.1 0	
						CHANNELS 3 Zrotation Xrotation Yrotation
						JOINT LeftUpperArm
						{
							OFFSET 0.156 -0.02 0.03	
							CHANNELS 3 Zrotation Xrotation Yrotation
							JOINT LeftForeArm
							{
								OFFSET 0.035 -0.27 -0.01	
								CHANNELS 3 Zrotation Xrotation Yrotation
								JOINT LeftHand
								{
									OFFSET 0.01 -0.27 0.01	
									CHANNELS 3 Zrotation Xrotation Yrotation
									End Site
									{
										OFFSET 0 -0.15 0
									}
								}
							}
						}
					}
					JOINT RightCollar
					{
						OFFSET 0 0.1 0	
						CHANNELS 3 Zrotation Xrotation Yrotation
						JOINT RightUpperArm
						{
							OFFSET -0.156 -0.02 0.03	
							CHANNELS 3 Zrotation Xrotation Yrotation
							JOINT RightForeArm
							{
								OFFSET -0.035 -0.27 -0.01	
								CHANNELS 3 Zrotation Xrotation Yrotation
								JOINT RightHand
								{
									OFFSET -0.01 -0.27 0.01	
									CHANNELS 3 Zrotation Xrotation Yrotation
									End Site
									{
										OFFSET 0 -0.15 0
									}
								}
							}
						}
					}
					JOINT Neck
					{
						OFFSET 0 0.1 0	
						CHANNELS 3 Zrotation Xrotation Yrotation
						JOINT Head
						{
							OFFSET 0 0.127 0.03	
							CHANNELS 3 Zrotation Xrotation Yrotation
							End Site
							{
								OFFSET 0 0.127 0.03
							}
						}
					}
				}
			}
		}
	}
	JOINT LeftHip
	{
		OFFSET 0 0 0	
		CHANNELS 3 Zrotation Xrotation Yrotation
		JOINT LeftThigh
		{
			OFFSET 0.088 -0.06 0	
			CHANNELS 3 Zrotation Xrotation Yrotation
			JOINT LeftLowerLeg
			{
				OFFSET 0 -0.39 0.02	
				CHANNELS 3 Zrotation Xrotation Yrotation
				JOINT LeftFootTop
				{
					OFFSET 0 -0.43 -0.02	
					CHANNELS 3 Zrotation Xrotation Yrotation
					JOINT LeftFootFront
					{
						OFFSET 0 -0.07 0.085	
						CHANNELS 3 Zrotation Xrotation Yrotation
						End Site
						{
							OFFSET 0 -0.005 0.09
						}
					}
				}
				JOINT LeftHeel
				{
					OFFSET 0 -0.43 -0.02	
					CHANNELS 3 Zrotation Xrotation Yrotation
					End Site
					{
						OFFSET 0 -0.075 -0.05
					}
				}
			}
		}
	}
	JOINT RightHip
	{
		OFFSET 0 0 0	
		CHANNELS 3 Zrotation Xrotation Yrotation
		JOINT RightThigh
		{
			OFFSET -0.088 -0.06 0	
			CHANNELS 3 Zrotation Xrotation Yrotation
			JOINT RightLowerLeg
			{
				OFFSET 0 -0.39 0.02	
				CHANNELS 3 Zrotation Xrotation Yrotation
				JOINT RightFootTop
				{
					OFFSET 0 -0.43 -0.02	
					CHANNELS 3 Zrotation Xrotation Yrotation
					JOINT RightFootFront
					{
						OFFSET 0 -0.07 0.085	
						CHANNELS 3 Zrotation Xrotation Yrotation
						End Site
						{
							OFFSET 0 -0.005 0.09
						}
					}
				}
				JOINT RightHeel
				{
					OFFSET 0 -0.43 -0.02	
					CHANNELS 3 Zrotation Xrotation Yrotation
					End Site
					{
						OFFSET 0 -0.075 -0.05
					}
				}
			}
		}
	}
}
MOTION
Frames: 7
Frame Time: 0.05
0.30313 0.90653 -2.4326 -0 0 -0 -1.6239 0.9071 -81.267 3.6342 -1.7431 10.481 3.6342 -1.7431 10.481 3.0321 -1.5094 8.7965 -0 0 -0 32.023 11.938 41.654 41.368 28.982 14.508 -1.4847 -0.74264 -1.3749 -0 0 -0 1.691 -40.448 34.806 69.225 -38.948 14.812 -1.0566 -0.49829 1.6215 -0 0 -0 -0 0 -0 -1.6239 0.9071 -81.267 -1.4723 -20.037 -9.2113 -7.5294 3.9996 30.572 -0 0 -0 0 0 -9.0713e-07 -0 0 -0 -1.6239 0.9071 -81.267 17.46 1.9502 -10.582 2.9707 28.158 -9.7092 -0 0 -0 -1.8644e-07 -13.458 -1.5802e-06 -0 0 -0 
0.26462 0.91192 -2.412 -0 0 -0 -1.671 0.7673 -78.131 2.8969 -1.6843 10.513 2.8969 -1.6843 10.513 2.4133 -1.451 8.825 -0 0 -0 33.229 11.208 44.289 42.707 30.525 16.372 -2.115 -1.3814 -1.4871 -0 0 -0 4.7013 -44.865 32.541 60.111 -28.109 13.668 0.18567 -0.581 -0.72475 -0 0 -0 -0 0 -0 -1.671 0.7673 -78.131 -1.9663 -16.551 -6.8279 -9.3192 6.3236 19.629 -0 0 -0 0 0 -9.4716e-07 -0 0 -0 -1.671 0.7673 -78.131 13.114 -2.7716 -18.988 1.3052 40.928 -7.6644 -0 0 -0 0 0 -1.7075e-06 -0 0 -0 
0.22927 0.91573 -2.3943 -0 0 -0 2.3707 -2.3232 -72.038 -0.59722 -1.9359 9.5008 -0.59721 -1.9359 9.5008 -0.52334 -1.6199 7.9815 -0 0 -0 35.494 7.3608 47.663 41.325 28.81 18.05 -2.167 -1.4012 -2.9481 -0 0 -0 13.654 -49.372 30.346 51.263 -16.005 16.452 1.7842 -1.1058 -1.6705 -0 0 -0 -0 0 -0 2.3707 -2.3232 -72.038 -4.5129 -17.473 -16.689 -15.293 9.2796 13.815 -0 0 -0 0 0 -5.3361e-07 -0 0 -0 2.3707 -2.3232 -72.038 5.9602 -15.429 -19.181 4.0159 58.037 -8.6204 -0 0 -0 1.7075e-06 0 -0 -0 0 -0 
0.19844 0.91851 -2.3839 -0 0 -0 7.1798 -4.2145 -63.049 -4.0314 -1.4978 7.4761 -4.0314 -1.4978 7.4761 -3.3999 -1.223 6.287 -0 0 -0 36.581 0.67513 51.14 37.915 23.602 15.369 -1.4654 -2.0147 -3.2529 -0 0 -0 23.493 -50.477 34.398 44.045 -11.469 18.25 2.1283 0.053226 -1.8179 -0 0 -0 -0 0 -0 7.1798 -4.2145 -63.049 -9.5224 -19.239 -22.385 -17.473 13.13 16.404 -0 0 -0 -7.2632e-08 -1.591 -5.2309e-06 -0 0 -0 7.1798 -4.2145 -63.049 -1.2379 -28.791 -14.095 15.762 67.791 -21.735 -0 0 -0 1.7075e-06 -1.2722e-14 -8.5377e-07 -0 0 -0 
0.16907 0.92134 -2.3849 -0 0 -0 8.7959 -4.085 -53.284 -6.0793 -0.60296 6.5559 -6.0793 -0.60296 6.5559 -5.1119 -0.45984 5.5118 -0 0 -0 37.772 -6.9863 47.367 32.003 16.267 7.9606 -0.079362 -1.6888 -1.5617 -0 0 -0 27.354 -48.815 36.056 39.852 -10.486 15.1 0.63185 0.27104 1.7408 -0 0 -0 -0 0 -0 8.7959 -4.085 -53.284 -10.007 -18.758 -20.748 -17.357 18.659 6.9262 -0 0 -0 -4.1013e-07 -5.5853 3.5396e-07 -0 0 -0 8.7959 -4.085 -53.284 -7.7387 -36.792 -10.842 17.472 69.72 -21.555 -0 0 -0 -0 0 1.2807e-06 -0 0 -0 
0.13483 0.92504 -2.399 -0 0 -0 9.926 -3.3397 -43.529 -7.6135 -0.45124 7.3945 -7.6135 -0.45124 7.3945 -6.4002 -0.3131 6.2164 -0 0 -0 36.117 -12.484 33.242 24.839 6.6005 0.59782 1.5109 -0.76598 -0.1232 -0 0 -0 29.033 -45.175 33.12 34.247 -9.1401 14.177 0.3 0.00062621 1.7912 -0 0 -0 -0 0 -0 9.926 -3.3397 -43.529 -7.54 -16.915 -18.632 -16.781 20.203 -2.4725 -0 0 -0 -7.4232e-07 -7.8154 1.6608e-06 -0 0 -0 9.926 -3.3397 -43.529 -14.44 -41.922 -11.148 0.46373 65.087 -7.6325 -0 0 -0 8.5377e-07 -9.5417e-15 -1.2807e-06 -0 0 -0 
0.09039 0.92978 -2.4255 -0 0 -0 9.4762 -1.9757 -30.329 -7.5827 0.38065 7.482 -7.5827 0.38065 7.482 -6.3671 0.38642 6.2825 -0 0 -0 30.381 -15.456 14.456 20.696 -4.1375 -6.0132 1.509 0.026624 3.6235 -0 0 -0 29.773 -41.997 28.1 28.372 -5.9733 17.849 1.143 0.15999 -0.96217 -0 0 -0 -0 0 -0 9.4762 -1.9757 -30.329 -4.0531 -13.44 -17.529 -14.35 17.876 -10.277 -0 0 -0 -3.9152e-07 -7.7738 5.3498e-07 -0 0 -0 9.4762 -1.9757 -30.329 -18.281 -39.269 -18.226 -13.01 50.139 6.6253 -0 0 -0 0 0 -9.7384e-07 -0 0 -0 
